<?xml version="1.0" encoding="UTF-8" standalone="no"?>
<!-- Created with Inkscape (http://www.inkscape.org/) -->

<svg
   width="65.172859mm"
   height="46.507793mm"
   viewBox="0 0 65.172859 46.507794"
   version="1.1"
   id="svg1"
   inkscape:version="1.3 (0e150ed6c4, 2023-07-21)"
   sodipodi:docname="GuessemLogo2.svg"
   inkscape:export-filename="GuessemLogo.png"
   inkscape:export-xdpi="274.47"
   inkscape:export-ydpi="274.47"
   xmlns:inkscape="http://www.inkscape.org/namespaces/inkscape"
   xmlns:sodipodi="http://sodipodi.sourceforge.net/DTD/sodipodi-0.dtd"
   xmlns="http://www.w3.org/2000/svg"
   xmlns:svg="http://www.w3.org/2000/svg"
   xmlns:vectornator="http://vectornator.io">
  <sodipodi:namedview
     id="namedview1"
     pagecolor="#ffffff"
     bordercolor="#000000"
     borderopacity="0.25"
     inkscape:showpageshadow="2"
     inkscape:pageopacity="0.0"
     inkscape:pagecheckerboard="0"
     inkscape:deskcolor="#d1d1d1"
     inkscape:document-units="mm"
     inkscape:zoom="3.0467172"
     inkscape:cx="137.36096"
     inkscape:cy="66.793204"
     inkscape:window-width="1920"
     inkscape:window-height="1111"
     inkscape:window-x="-9"
     inkscape:window-y="-9"
     inkscape:window-maximized="1"
     inkscape:current-layer="layer1"
     showborder="false" />
  <defs
     id="defs1">
    <rect
       x="231.39661"
       y="347.91547"
       width="278.9888"
       height="60.721092"
       id="rect2" />
    <rect
       x="223.84749"
       y="348.24368"
       width="261.26483"
       height="49.561543"
       id="rect1" />
  </defs>
  <g
     inkscape:label="Layer 1"
     inkscape:groupmode="layer"
     id="layer1"
     transform="translate(-54.364095,-64.189157)">
    <g
       id="Face3"
       vectornator:layerName="Face3"
       style="clip-rule:evenodd;fill-rule:nonzero;stroke-linecap:round;stroke-linejoin:round"
       transform="matrix(0.26458333,0,0,0.26458333,-24.178127,-1.9449253)">&#10;<path
   d="m 390.838,308.469 c 1.399,-1.691 13.666,-0.649 17.873,2.833 5.073,4.198 6.161,14.208 4.762,15.899 -1.4,1.691 -12.491,1.43 -16.698,-2.052 -4.208,-3.482 -7.336,-14.989 -5.937,-16.68 z"
   fill="#0b1929"
   fill-rule="nonzero"
   opacity="1"
   stroke="#000000"
   stroke-linecap="butt"
   stroke-linejoin="round"
   stroke-width="2.16427"
   vectornator:layerName="Oval 3"
   id="path33" />
&#10;<path
   d="m 447.669,308.451 c 1.416,1.661 -1.763,13.606 -5.925,17.188 -5.018,4.318 -15.05,3.743 -16.467,2.082 -1.416,-1.661 0.788,-12.573 4.95,-16.155 4.163,-3.582 16.025,-4.776 17.442,-3.115 z"
   fill="#0b1929"
   fill-rule="nonzero"
   opacity="1"
   stroke="#000000"
   stroke-linecap="butt"
   stroke-linejoin="round"
   stroke-width="2.16427"
   vectornator:layerName="Oval 4"
   id="path34" />
&#10;</g>
    <g
       id="Body"
       vectornator:layerName="Body"
       style="clip-rule:evenodd;fill-rule:nonzero;stroke-linecap:round;stroke-linejoin:round"
       transform="matrix(0.26458333,0,0,0.26458333,-24.178127,-1.9449253)">&#10;<path
   d="m 382.551,315.646 c 0,-20.198 16.374,-36.572 36.572,-36.572 20.198,0 36.573,16.374 36.573,36.572 0,20.199 -16.375,36.573 -36.573,36.573 -20.198,0 -36.572,-16.374 -36.572,-36.573 z"
   fill="#3395ff"
   fill-opacity="0"
   fill-rule="nonzero"
   opacity="1"
   stroke="#000000"
   stroke-linecap="round"
   stroke-linejoin="round"
   stroke-width="5.44621"
   vectornator:layerName="Oval 1"
   id="path45" />
&#10;&#10;&#10;&#10;&#10;&#10;</g>
    <path
       style="fill:none;stroke:#000000;stroke-width:0.273621;stroke-dasharray:none;stroke-opacity:1"
       d="m 61.807234,101.08422 h 5.5"
       id="path1" />
    <path
       style="fill:none;stroke:#000000;stroke-width:0.273621;stroke-dasharray:none;stroke-opacity:1"
       d="m 69.405261,101.09097 h 5.5"
       id="path1-7" />
    <path
       style="fill:none;stroke:#000000;stroke-width:0.273621;stroke-dasharray:none;stroke-opacity:1"
       d="m 83.91151,101.08406 h 5.5"
       id="path1-7-88" />
    <path
       style="fill:none;stroke:#000000;stroke-width:0.273621;stroke-dasharray:none;stroke-opacity:1"
       d="m 76.813592,101.08143 h 5.5"
       id="path1-7-8" />
    <text
       xml:space="preserve"
       transform="matrix(0.26458333,0,0,0.26458333,0.67039463,5.5578947)"
       id="text1"
       style="font-size:26.6667px;line-height:0;white-space:pre;shape-inside:url(#rect2);display:inline;fill:none;stroke:#000000;stroke-width:1.00157;stroke-dasharray:none;stroke-opacity:1"><tspan
         x="231.39648"
         y="355.57817"
         id="tspan1">G U E S S E M</tspan></text>
    <path
       style="fill:none;stroke:#000000;stroke-width:0.273621;stroke-dasharray:none;stroke-opacity:1"
       d="m 91.371817,101.08406 h 5.499999"
       id="path1-7-0" />
    <path
       style="fill:none;stroke:#000000;stroke-width:0.273621;stroke-dasharray:none;stroke-opacity:1"
       d="m 98.619409,101.08823 h 5.499981"
       id="path1-7-4" />
    <path
       style="fill:none;stroke:#000000;stroke-width:0.273621;stroke-dasharray:none;stroke-opacity:1"
       d="m 106.21501,101.09097 h 5.5"
       id="path1-7-1" />
    <rect
       style="fill:none;stroke:#000000;stroke-width:0.329999;stroke-dasharray:none;stroke-opacity:1"
       id="rect3"
       width="64.842857"
       height="46.177795"
       x="54.529095"
       y="64.354156" />
  </g>
</svg>
