<?xml version="1.0" encoding="UTF-8" standalone="no"?>
<!DOCTYPE svg PUBLIC "-//W3C//DTD SVG 1.1//EN" "http://www.w3.org/Graphics/SVG/1.1/DTD/svg11.dtd">
<!-- Created with Vectornator (http://vectornator.io/) -->
<svg height="100%" stroke-miterlimit="10" style="fill-rule:nonzero;clip-rule:evenodd;stroke-linecap:round;stroke-linejoin:round;" version="1.1" viewBox="0 0 841.995 595.35" width="100%" xml:space="preserve" xmlns="http://www.w3.org/2000/svg" xmlns:vectornator="http://vectornator.io" xmlns:xlink="http://www.w3.org/1999/xlink">
<defs/>
<g id="Beam4" vectornator:layerName="Beam4" visibility="hidden">
<path d="M197.651 117.732L18.6845 510.177C18.6845 510.177 448.444 579.304 817.75 511.266L637.586 109.023L618.666 118.22L593.991 126.286L573.348 135.085L554.157 139.339L526.579 142.418L509.483 144.765L486.905 146.818L461.907 147.698L433.684 148.871L390.684 149.342L354.294 149.144L318.122 145.181L275.631 139.434L253.187 131.112L216.144 121.6L197.651 117.732Z" fill="#84ff00" fill-opacity="0.504728" fill-rule="nonzero" opacity="1" stroke="#84ff00" stroke-linecap="butt" stroke-linejoin="round" stroke-width="2.16427" vectornator:layerName="Curve 1"/>
</g>
<g id="Beam3" vectornator:layerName="Beam3" visibility="hidden">
<path d="M196.075 270.424L341.708 514.027C341.708 514.027 427.696 562.968 497.909 513.55L282.863 209.579L196.075 270.424Z" fill="#fffb16" fill-opacity="0.253628" fill-rule="nonzero" opacity="1" stroke="#fffb16" stroke-linecap="butt" stroke-linejoin="round" stroke-width="2.80959" vectornator:layerName="Curve 1"/>
</g>
<g id="Beam2" vectornator:layerName="Beam2" visibility="hidden">
<path d="M559.709 216.334L341.094 511.398C341.094 511.398 422.684 563.42 499.039 513.116L649.272 275.91L649.809 275.063L637.482 269.555L634.097 268.064L627.27 264.099L623.631 261.017L613.982 254.92L606.339 250.006L597.788 244.11L589.865 239.091L582.899 234.647L575.269 229.418L570.487 225.691L566.173 221.288L562.371 218.358L560.017 215.549L559.709 216.334Z" fill="#fffb16" fill-opacity="0.253628" fill-rule="nonzero" opacity="1" stroke="#fffb16" stroke-linecap="butt" stroke-linejoin="round" stroke-width="2.80959" vectornator:layerName="Curve 1"/>
</g>
<g id="Beam1" vectornator:layerName="Beam1">
<path d="M385.131 206.047L340.318 515.323C340.318 515.323 421.619 557.451 499.408 514.988L459.8 204.904L457.976 206.125L450.633 206.787L447.503 207.088L443.832 207.449L441.183 207.69L437.572 207.69L434.321 207.81L432.155 208.051L429.506 208.472L427.219 208.111L424.149 208.292L421.38 208.533L417.889 208.713L414.639 208.593L412.171 208.653L408.138 208.773L404.948 208.653L401.638 208.292L398.568 208.051L395.438 207.57L393.211 207.088L391.165 206.727L389.178 206.727L387.794 206.366L386.47 206.185L385.627 205.403L384.243 205.403L385.131 206.047Z" fill="#fffb16" fill-opacity="0.146279" fill-rule="nonzero" opacity="1" stroke="#fffb16" stroke-linecap="butt" stroke-linejoin="round" stroke-width="2.80959" vectornator:layerName="Curve 6"/>
<path d="M385.131 206.047L340.318 515.323C340.318 515.323 421.619 557.451 499.408 514.988L459.8 204.904L457.976 206.125L450.633 206.787L447.503 207.088L443.832 207.449L441.183 207.69L437.572 207.69L434.321 207.81L432.155 208.051L429.506 208.472L427.219 208.111L424.149 208.292L421.38 208.533L417.889 208.713L414.639 208.593L412.171 208.653L408.138 208.773L404.948 208.653L401.638 208.292L398.568 208.051L395.438 207.57L393.211 207.088L391.165 206.727L389.178 206.727L387.794 206.366L386.47 206.185L385.627 205.403L384.243 205.403L385.131 206.047Z" fill="#fffb16" fill-opacity="0.146279" fill-rule="nonzero" opacity="1" stroke="#fffb16" stroke-linecap="butt" stroke-linejoin="round" stroke-width="2.80959" vectornator:layerName="Curve 7"/>
<path d="M385.131 206.047L340.318 515.323C340.318 515.323 421.619 557.451 499.408 514.988L459.8 204.904L457.976 206.125L450.633 206.787L447.503 207.088L443.832 207.449L441.183 207.69L437.572 207.69L434.321 207.81L432.155 208.051L429.506 208.472L427.219 208.111L424.149 208.292L421.38 208.533L417.889 208.713L414.639 208.593L412.171 208.653L408.138 208.773L404.948 208.653L401.638 208.292L398.568 208.051L395.438 207.57L393.211 207.088L391.165 206.727L389.178 206.727L387.794 206.366L386.47 206.185L385.627 205.403L384.243 205.403L385.131 206.047Z" fill="#fffb16" fill-opacity="0.146279" fill-rule="nonzero" opacity="1" stroke="#fffb16" stroke-linecap="butt" stroke-linejoin="round" stroke-width="2.80959" vectornator:layerName="Curve 8"/>
</g>
<g id="UFO4" vectornator:layerName="UFO4" visibility="hidden">
<g opacity="1" vectornator:layerName="Group 1">
<path d="M327.573 62.1706C324.114 59.8221 335.736 49.1418 337.432 47.0224C346.135 36.143 362.395 29.7223 375.903 25.863C410.286 16.0393 447.93 9.06331 480.739 28.7483C493.494 36.4016 511.516 43.2387 511.516 61.4493C511.516 72.6375 471.937 77.9843 464.388 79.2424C421.343 86.4166 363.729 86.7163 327.573 62.1706Z" fill="none" opacity="1" stroke="#000000" stroke-linecap="round" stroke-linejoin="round" stroke-width="5.44621" vectornator:layerName="Curve 6"/>
<path d="M324.218 60.7619C312.057 60.7619 299.995 66.3068 288.327 68.6404C269.602 72.3854 250.389 78.8542 231.427 82.6467C225.774 83.7772 220.359 86.9455 214.794 88.3367C205.553 90.6471 197.308 96.1005 188.095 98.4037C185.871 98.9596 182.642 101.542 183.28 104.094C184.122 107.462 189.44 109.103 192.034 110.659C197.768 114.1 205.916 118.513 212.606 119.851C216.531 120.636 221.099 121.41 224.861 122.915C238.764 128.476 255.51 134.034 269.944 136.921C272.976 137.527 275.605 139.907 278.698 140.423C284.877 141.452 291.238 143.139 297.519 143.924C311.75 145.703 326.255 147.255 340.413 149.614C346.546 150.636 353.092 149.612 359.234 150.49C364.112 151.186 369.618 150.49 374.553 150.49C383.397 150.49 392.506 151.024 401.253 150.052C412.977 148.749 425.006 150.639 436.706 149.176C447.802 147.789 459.313 149.688 470.409 148.301C479.657 147.145 489.211 147.866 498.421 146.55C513.117 144.451 527.465 141.375 542.191 139.109C548.862 138.083 555.723 138.021 562.325 136.921C569.815 135.673 578.413 131.011 585.523 128.167C597.742 123.279 609.631 118.611 621.851 113.723C627.664 111.398 633.317 110.158 638.484 106.282C641.446 104.061 648.371 101.312 649.426 97.0907C649.629 96.2803 643.33 93.9518 642.423 93.5891C634.462 90.4047 626.154 85.5824 617.912 83.5221C614.848 82.756 611.586 80.14 608.72 78.7074C604.014 76.3542 596.022 73.4542 590.775 72.5797C582.632 71.2226 574.824 67.8057 566.702 66.4519C548.371 63.3968 531.24 60.3242 512.427 60.3242" fill="none" opacity="1" stroke="#000000" stroke-linecap="round" stroke-linejoin="round" stroke-width="5" vectornator:layerName="Curve 10"/>
</g>
<path d="M403.138 45.4267C404.253 34.6467 417.617 27.7913 426.871 28.6942C436.124 29.597 447.996 37.7299 446.881 48.5099C445.767 59.2899 432.483 79.1349 423.23 78.2321C413.977 77.3292 402.024 56.2067 403.138 45.4267Z" fill="#3395ff" fill-opacity="0" fill-rule="nonzero" opacity="1" stroke="#000000" stroke-linecap="butt" stroke-linejoin="round" stroke-width="1.53421" vectornator:layerName="Oval 2"/>
<path d="M409.088 50.8711C409.787 50.0021 416.024 50.4426 418.186 52.1806C420.793 54.2759 421.418 59.352 420.72 60.221C420.021 61.09 414.386 61.0377 412.224 59.2997C410.062 57.5618 408.39 51.7401 409.088 50.8711Z" fill="#0b1929" fill-rule="nonzero" opacity="1" stroke="#000000" stroke-linecap="butt" stroke-linejoin="round" stroke-width="2.16427" vectornator:layerName="Oval 3"/>
<path d="M440.243 53.3107C440.794 54.2727 438.086 59.9371 435.672 61.3346C432.762 63.0196 427.808 61.791 427.257 60.8291C426.706 59.8671 428.83 54.6265 431.244 53.229C433.658 51.8315 439.691 52.3487 440.243 53.3107Z" fill="#0b1929" fill-rule="nonzero" opacity="1" stroke="#000000" stroke-linecap="butt" stroke-linejoin="round" stroke-width="2.16427" vectornator:layerName="Oval 4"/>
<g opacity="1" vectornator:layerName="Group 2">
<path d="M356.43 52.6282C356.846 44.9982 366.045 39.7657 372.608 40.1238C379.171 40.4819 387.83 45.8561 387.414 53.4861C386.998 61.1161 378.302 75.4998 371.739 75.1417C365.176 74.7836 356.013 60.2582 356.43 52.6282Z" fill="#3395ff" fill-opacity="0" fill-rule="nonzero" opacity="1" stroke="#000000" stroke-linecap="butt" stroke-linejoin="round" stroke-width="1.53421" vectornator:layerName="Oval 2"/>
<path d="M360.817 56.286C361.28 55.6526 365.698 55.7755 367.284 56.9352C369.196 58.3335 369.812 61.8917 369.349 62.5251C368.885 63.1584 364.906 63.2909 363.32 62.1312C361.734 60.9715 360.354 56.9193 360.817 56.286Z" fill="#0b1929" fill-rule="nonzero" opacity="1" stroke="#000000" stroke-linecap="butt" stroke-linejoin="round" stroke-width="2.16427" vectornator:layerName="Oval 3"/>
<path d="M382.893 57.0687C383.315 57.73 381.598 61.803 379.942 62.8604C377.946 64.1352 374.407 63.4184 373.984 62.757C373.562 62.0957 374.882 58.339 376.538 57.2816C378.193 56.2242 382.47 56.4073 382.893 57.0687Z" fill="#0b1929" fill-rule="nonzero" opacity="1" stroke="#000000" stroke-linecap="butt" stroke-linejoin="round" stroke-width="2.16427" vectornator:layerName="Oval 4"/>
</g>
<g opacity="1" vectornator:layerName="Group 3">
<path d="M458.638 49.9336C458.871 42.2844 467.954 36.8231 474.533 37.0229C481.113 37.2227 489.913 42.394 489.681 50.0432C489.448 57.6924 481.09 72.3036 474.511 72.1038C467.931 71.904 458.406 57.5828 458.638 49.9336Z" fill="#3395ff" fill-opacity="0" fill-rule="nonzero" opacity="1" stroke="#000000" stroke-linecap="butt" stroke-linejoin="round" stroke-width="1.53421" vectornator:layerName="Oval 2"/>
<path d="M463.119 53.4896C463.568 52.8443 467.994 52.8605 469.61 53.9833C471.558 55.3369 472.261 58.8846 471.812 59.5299C471.364 60.1752 467.383 60.4041 465.767 59.2813C464.151 58.1586 462.671 54.1349 463.119 53.4896Z" fill="#0b1929" fill-rule="nonzero" opacity="1" stroke="#000000" stroke-linecap="butt" stroke-linejoin="round" stroke-width="2.16427" vectornator:layerName="Oval 3"/>
<path d="M485.24 53.7394C485.679 54.3913 484.059 58.5108 482.427 59.6094C480.459 60.934 476.898 60.3019 476.459 59.65C476.02 58.9981 477.251 55.205 478.883 54.1063C480.515 53.0076 484.802 53.0875 485.24 53.7394Z" fill="#0b1929" fill-rule="nonzero" opacity="1" stroke="#000000" stroke-linecap="butt" stroke-linejoin="round" stroke-width="2.16427" vectornator:layerName="Oval 4"/>
</g>
</g>
<g id="UFO3" vectornator:layerName="UFO3" visibility="hidden">
<g opacity="1" vectornator:layerName="Group 3">
<path d="M175.787 230.772C173.749 230.719 175.708 223.277 175.847 221.961C176.556 215.205 181.539 208.291 186.068 203.153C197.593 190.073 211.207 177.303 229.853 176.749C237.101 176.533 246.297 174.596 251.089 182.07C254.034 186.662 239.197 199.272 236.43 201.775C220.652 216.047 197.085 231.331 175.787 230.772Z" fill="none" opacity="1" stroke="#000000" stroke-linecap="round" stroke-linejoin="round" stroke-width="5.44621" vectornator:layerName="Curve 6"/>
<path d="M174.039 231.077C169.048 234.277 165.557 239.727 161.382 243.755C154.683 250.22 148.5 257.931 141.716 264.477C139.693 266.429 138.305 269.154 136.387 271.19C133.202 274.57 131.253 278.978 128.078 282.347C127.312 283.161 126.666 285.07 127.6 285.95C128.832 287.11 131.446 286.384 132.92 286.341C136.179 286.244 140.684 285.911 143.782 284.699C145.6 283.989 147.678 283.104 149.618 282.732C156.787 281.355 165.123 279.23 171.806 276.616C173.21 276.067 174.916 276.352 176.32 275.75C179.127 274.546 182.182 273.564 184.966 272.234C191.275 269.219 197.637 266.038 204.068 263.281C206.854 262.087 209.271 259.944 212.023 258.688C214.208 257.69 216.285 255.955 218.31 254.656C221.94 252.329 225.819 250.151 229.153 247.45C233.622 243.83 239.056 241.44 243.473 237.761C247.662 234.272 252.885 232.022 257.074 228.533C260.566 225.625 264.676 223.406 268.11 220.443C273.589 215.713 278.668 210.676 284.116 205.87C286.584 203.693 289.383 201.863 291.803 199.674C294.549 197.19 296.851 193.014 299.02 189.976C302.749 184.755 306.4 179.71 310.129 174.488C311.902 172.004 313.896 170.008 314.997 167.057C315.628 165.366 317.747 162.416 317.069 160.406C316.939 160.02 313.741 160.722 313.273 160.811C309.168 161.599 304.489 161.807 300.564 163.13C299.105 163.622 297.078 163.407 295.525 163.573C292.974 163.846 288.931 164.759 286.547 165.78C282.848 167.366 278.745 168.019 275.055 169.601C266.728 173.171 258.889 176.418 251.167 181.368" fill="none" opacity="1" stroke="#000000" stroke-linecap="round" stroke-linejoin="round" stroke-width="5" vectornator:layerName="Curve 10"/>
</g>
<g opacity="1" vectornator:layerName="Group 4">
<path d="M203.963 204.268C201.194 199.941 204.159 193.473 207.881 191.091C211.603 188.709 218.439 188.241 221.208 192.569C223.977 196.896 224.881 208.16 221.159 210.541C217.437 212.923 206.732 208.595 203.963 204.268Z" fill="#3395ff" fill-opacity="0" fill-rule="nonzero" opacity="1" stroke="#000000" stroke-linecap="butt" stroke-linejoin="round" stroke-width="1.53421" vectornator:layerName="Oval 2"/>
<path d="M207.794 204.541C207.798 204.014 210.257 202.346 211.578 202.356C213.17 202.368 214.904 204.068 214.899 204.595C214.895 205.123 212.776 206.758 211.455 206.748C210.134 206.738 207.79 205.069 207.794 204.541Z" fill="#0b1929" fill-rule="nonzero" opacity="1" stroke="#000000" stroke-linecap="butt" stroke-linejoin="round" stroke-width="2.16427" vectornator:layerName="Oval 3"/>
<path d="M220.148 196.299C220.638 196.494 221.301 199.391 220.812 200.618C220.223 202.098 218.01 203.097 217.52 202.902C217.03 202.707 216.275 200.138 216.763 198.911C217.252 197.684 219.658 196.104 220.148 196.299Z" fill="#0b1929" fill-rule="nonzero" opacity="1" stroke="#000000" stroke-linecap="butt" stroke-linejoin="round" stroke-width="2.16427" vectornator:layerName="Oval 4"/>
</g>
</g>
<g id="UFO2" vectornator:layerName="UFO2" visibility="hidden">
<g opacity="1" vectornator:layerName="Group 2">
<path d="M591.902 184.55C591.164 182.65 598.785 181.58 600.052 181.199C606.556 179.241 614.859 181.165 621.349 183.355C637.868 188.929 654.907 196.549 662.626 213.53C665.627 220.132 670.967 227.864 665.927 235.173C662.83 239.664 645.465 230.855 642.087 229.27C622.826 220.235 599.619 204.408 591.902 184.55Z" fill="none" opacity="1" stroke="#000000" stroke-linecap="round" stroke-linejoin="round" stroke-width="5.44621" vectornator:layerName="Curve 6"/>
<path d="M590.946 183.056C586.065 179.69 579.689 178.576 574.36 176.283C565.809 172.604 556.307 169.882 547.647 166.155C545.065 165.045 542.015 164.817 539.397 163.835C535.048 162.205 530.23 162.111 525.894 160.486C524.848 160.093 522.837 160.236 522.387 161.437C521.793 163.021 523.473 165.152 524.083 166.495C525.432 169.463 527.481 173.489 529.796 175.878C531.154 177.279 532.773 178.854 533.866 180.5C537.907 186.58 543.089 193.446 548.083 198.599C549.132 199.682 549.529 201.365 550.627 202.428C552.822 204.551 554.908 206.989 557.212 209.042C562.431 213.695 567.823 218.333 572.852 223.199C575.031 225.306 577.941 226.707 580.164 228.759C581.929 230.389 584.332 231.634 586.312 233C589.862 235.448 593.37 238.183 597.149 240.214C602.215 242.936 606.52 247.024 611.62 249.676C616.458 252.19 620.552 256.138 625.389 258.653C629.421 260.749 633.056 263.682 637.116 265.704C643.596 268.929 650.205 271.666 656.743 274.832C659.704 276.267 662.475 278.141 665.429 279.527C668.781 281.099 673.522 281.608 677.162 282.434C683.419 283.855 689.483 285.272 695.741 286.693C698.717 287.368 701.329 288.435 704.476 288.31C706.279 288.238 709.82 289.052 711.411 287.65C711.717 287.38 709.834 284.702 709.57 284.306C707.256 280.824 705.256 276.589 702.519 273.481C701.501 272.326 700.916 270.373 700.163 269.005C698.925 266.758 696.52 263.382 694.656 261.578C691.764 258.78 689.576 255.247 686.691 252.456C680.179 246.156 674.155 240.181 666.604 234.974" fill="none" opacity="1" stroke="#000000" stroke-linecap="round" stroke-linejoin="round" stroke-width="5" vectornator:layerName="Curve 10"/>
</g>
<g opacity="1" vectornator:layerName="Group 3">
<path d="M625.568 197.522C629.02 193.717 636.038 194.886 639.311 197.855C642.584 200.824 644.824 207.3 641.372 211.105C637.921 214.91 627.286 218.729 624.013 215.76C620.74 212.791 622.116 201.327 625.568 197.522Z" fill="#3395ff" fill-opacity="0" fill-rule="nonzero" opacity="1" stroke="#000000" stroke-linecap="butt" stroke-linejoin="round" stroke-width="1.53421" vectornator:layerName="Oval 2"/>
<path d="M626.307 201.29C626.817 201.156 629.07 203.093 629.406 204.371C629.811 205.911 628.624 208.029 628.114 208.163C627.603 208.297 625.471 206.679 625.135 205.402C624.799 204.124 625.796 201.424 626.307 201.29Z" fill="#0b1929" fill-rule="nonzero" opacity="1" stroke="#000000" stroke-linecap="butt" stroke-linejoin="round" stroke-width="2.16427" vectornator:layerName="Oval 3"/>
<path d="M637.494 211.057C637.434 211.581 634.812 212.979 633.499 212.829C631.917 212.648 630.374 210.773 630.434 210.249C630.494 209.725 632.775 208.324 634.088 208.474C635.4 208.625 637.554 210.533 637.494 211.057Z" fill="#0b1929" fill-rule="nonzero" opacity="1" stroke="#000000" stroke-linecap="butt" stroke-linejoin="round" stroke-width="2.16427" vectornator:layerName="Oval 4"/>
</g>
</g>
<g id="UFO1" vectornator:layerName="UFO1">
<g opacity="1" vectornator:layerName="Group 9">
<path d="M393.215 179.815C392.157 179.118 395.633 175.834 396.138 175.185C398.729 171.852 403.628 169.839 407.704 168.613C418.079 165.492 429.454 163.22 439.476 169.046C443.373 171.311 448.861 173.306 448.938 178.823C448.985 182.213 437.017 183.999 434.735 184.412C421.725 186.766 404.272 187.099 393.215 179.815Z" fill="none" opacity="1" stroke="#000000" stroke-linecap="round" stroke-linejoin="round" stroke-width="2.36426" vectornator:layerName="Curve 6"/>
<path d="M392.193 179.403C388.509 179.454 384.878 181.184 381.353 181.94C375.696 183.154 369.902 185.194 364.174 186.423C362.466 186.789 360.839 187.772 359.159 188.217C356.369 188.956 353.894 190.642 351.112 191.379C350.441 191.557 349.474 192.353 349.678 193.123C349.947 194.14 351.565 194.615 352.357 195.075C354.109 196.093 356.596 197.396 358.628 197.773C359.821 197.995 361.208 198.21 362.354 198.65C366.589 200.276 371.686 201.89 376.071 202.704C376.992 202.875 377.799 203.584 378.738 203.728C380.614 204.014 382.548 204.498 384.454 204.709C388.773 205.188 393.174 205.597 397.473 206.253C399.335 206.536 401.314 206.199 403.178 206.439C404.659 206.629 406.325 206.395 407.82 206.374C410.499 206.337 413.261 206.46 415.906 206.129C419.453 205.685 423.105 206.207 426.643 205.715C429.999 205.248 433.494 205.775 436.85 205.308C439.647 204.919 442.544 205.097 445.329 204.66C449.772 203.962 454.106 202.97 458.558 202.221C460.575 201.882 462.653 201.835 464.648 201.474C466.912 201.064 469.497 199.615 471.639 198.724C475.32 197.192 478.903 195.728 482.584 194.195C484.336 193.466 486.043 193.067 487.592 191.871C488.48 191.186 490.566 190.324 490.868 189.04C490.926 188.794 489.008 188.115 488.732 188.009C486.307 187.078 483.769 185.652 481.264 185.062C480.332 184.843 479.333 184.064 478.459 183.642C477.023 182.949 474.59 182.104 472.997 181.862C470.524 181.485 468.144 180.482 465.678 180.106C460.112 179.258 454.909 178.399 449.209 178.478" fill="none" opacity="1" stroke="#000000" stroke-linecap="round" stroke-linejoin="round" stroke-width="2.36426" vectornator:layerName="Curve 10"/>
</g>
<path d="M415.562 175.035C415.641 171.807 419.418 169.481 422.163 169.55C424.908 169.619 428.592 171.78 428.513 175.008C428.434 178.236 424.981 184.42 422.235 184.351C419.49 184.282 415.483 178.263 415.562 175.035Z" fill="#3395ff" fill-opacity="0" fill-rule="nonzero" opacity="1" stroke="#000000" stroke-linecap="butt" stroke-linejoin="round" stroke-width="1.08068" vectornator:layerName="Oval 2"/>
<path d="M417.635 176.026C417.848 175.774 419.685 175.967 420.309 176.506C421.062 177.156 421.206 178.675 420.993 178.927C420.78 179.179 419.118 179.108 418.494 178.569C417.87 178.03 417.422 176.278 417.635 176.026Z" fill="#0b1929" fill-rule="nonzero" opacity="1" stroke="#000000" stroke-linecap="butt" stroke-linejoin="round" stroke-width="1.45307" vectornator:layerName="Oval 3"/>
<path d="M426.488 176.427C426.673 176.701 426.006 178.443 425.328 178.91C424.51 179.473 423.023 179.215 422.839 178.941C422.654 178.667 423.158 177.064 423.837 176.597C424.515 176.129 426.304 176.153 426.488 176.427Z" fill="#0b1929" fill-rule="nonzero" opacity="1" stroke="#000000" stroke-linecap="butt" stroke-linejoin="round" stroke-width="1.45307" vectornator:layerName="Oval 4"/>
</g>
<g id="Face3" vectornator:layerName="Face3" visibility="hidden">
<path d="M390.838 308.469C392.237 306.778 404.504 307.82 408.711 311.302C413.784 315.5 414.872 325.51 413.473 327.201C412.073 328.892 400.982 328.631 396.775 325.149C392.567 321.667 389.439 310.16 390.838 308.469Z" fill="#0b1929" fill-rule="nonzero" opacity="1" stroke="#000000" stroke-linecap="butt" stroke-linejoin="round" stroke-width="2.16427" vectornator:layerName="Oval 3"/>
<path d="M447.669 308.451C449.085 310.112 445.906 322.057 441.744 325.639C436.726 329.957 426.694 329.382 425.277 327.721C423.861 326.06 426.065 315.148 430.227 311.566C434.39 307.984 446.252 306.79 447.669 308.451Z" fill="#0b1929" fill-rule="nonzero" opacity="1" stroke="#000000" stroke-linecap="butt" stroke-linejoin="round" stroke-width="2.16427" vectornator:layerName="Oval 4"/>
</g>
<g id="Face2" vectornator:layerName="Face2">
<path d="M403.047 316.814C403.047 314.404 405 312.45 407.41 312.45C409.82 312.45 411.774 314.404 411.774 316.814C411.774 319.224 409.82 321.177 407.41 321.177C405 321.177 403.047 319.224 403.047 316.814Z" fill="#0b1929" fill-rule="nonzero" opacity="1" stroke="none" vectornator:layerName="Oval 1"/>
<path d="M427.047 317.905C427.047 315.495 429 313.541 431.41 313.541C433.82 313.541 435.774 315.495 435.774 317.905C435.774 320.314 433.82 322.268 431.41 322.268C429 322.268 427.047 320.314 427.047 317.905Z" fill="#0b1929" fill-rule="nonzero" opacity="1" stroke="none" vectornator:layerName="Oval 2"/>
<path d="M401.137 306.177C400.441 304.785 403.797 301.626 405.228 301.268C408.6 300.425 410.505 303.366 411.774 305.905" fill="none" opacity="1" stroke="#000000" stroke-linecap="round" stroke-linejoin="round" stroke-width="2.80959" vectornator:layerName="Curve 1"/>
<path d="M426.774 307.268C426.774 310.004 432.015 311.117 434.137 310.268C435.448 309.744 435.912 308.767 436.865 307.814" fill="none" opacity="1" stroke="#000000" stroke-linecap="round" stroke-linejoin="round" stroke-width="2.80959" vectornator:layerName="Curve 2"/>
<path d="M421.865 337.814C421.865 336.783 422.841 336.565 423.501 335.905C426.297 333.109 431.821 330.656 435.774 332.632" fill="none" opacity="1" stroke="#000000" stroke-linecap="round" stroke-linejoin="round" stroke-width="2.80959" vectornator:layerName="Curve 3"/>
</g>
<g id="Face1" vectornator:layerName="Face1" visibility="hidden">
<path d="M403.047 316.814C403.047 314.404 405 312.45 407.41 312.45C409.82 312.45 411.774 314.404 411.774 316.814C411.774 319.224 409.82 321.177 407.41 321.177C405 321.177 403.047 319.224 403.047 316.814Z" fill="#0b1929" fill-rule="nonzero" opacity="1" stroke="none" vectornator:layerName="Oval 1"/>
<path d="M427.047 317.905C427.047 315.495 429 313.541 431.41 313.541C433.82 313.541 435.774 315.495 435.774 317.905C435.774 320.314 433.82 322.268 431.41 322.268C429 322.268 427.047 320.314 427.047 317.905Z" fill="#0b1929" fill-rule="nonzero" opacity="1" stroke="none" vectornator:layerName="Oval 2"/>
<path d="M405.774 332.632C405.774 340.449 418.279 343.23 424.319 340.814C425.832 340.208 427.306 338.645 428.41 337.541C429.636 336.315 430.865 334.999 430.865 333.177" fill="none" opacity="1" stroke="#000000" stroke-linecap="round" stroke-linejoin="round" stroke-width="2.80959" vectornator:layerName="Curve 1"/>
<path d="M401.956 306.995C401.051 307.448 403.41 304.25 404.683 303.995C406.521 303.628 407.854 304.814 409.319 304.814" fill="none" opacity="1" stroke="#000000" stroke-linecap="round" stroke-linejoin="round" stroke-width="2.80959" vectornator:layerName="Curve 2"/>
<path d="M429.501 306.723C432.188 304.035 436.894 303.81 438.228 307.814" fill="none" opacity="1" stroke="#000000" stroke-linecap="round" stroke-linejoin="round" stroke-width="2.80959" vectornator:layerName="Curve 3"/>
</g>
<g id="Body" vectornator:layerName="Body">
<path d="M382.551 315.646C382.551 295.448 398.925 279.074 419.123 279.074C439.321 279.074 455.696 295.448 455.696 315.646C455.696 335.845 439.321 352.219 419.123 352.219C398.925 352.219 382.551 335.845 382.551 315.646Z" fill="#3395ff" fill-opacity="0" fill-rule="nonzero" opacity="1" stroke="#000000" stroke-linecap="round" stroke-linejoin="round" stroke-width="5.44621" vectornator:layerName="Oval 1"/>
<path d="M416.315 353.807C416.315 388.653 419.312 424.188 419.312 459.08" fill="none" opacity="1" stroke="#000000" stroke-linecap="round" stroke-linejoin="round" stroke-width="5.44621" vectornator:layerName="Curve 1"/>
<path d="M417.064 386.401C409.092 402.345 389.252 413.464 376.978 425.738" fill="none" opacity="1" stroke="#000000" stroke-linecap="round" stroke-linejoin="round" stroke-width="5.44621" vectornator:layerName="Curve 2"/>
<path d="M418.188 387.525C424.603 400.356 445.543 410.238 458.648 411.876" fill="none" opacity="1" stroke="#000000" stroke-linecap="round" stroke-linejoin="round" stroke-width="5.44621" vectornator:layerName="Curve 3"/>
<path d="M418.562 459.829C413.552 462.335 407.744 474.162 403.577 478.561C394.678 487.955 384.272 495.993 375.105 505.16" fill="none" opacity="1" stroke="#000000" stroke-linecap="round" stroke-linejoin="round" stroke-width="5.44621" vectornator:layerName="Curve 4"/>
<path d="M420.436 458.331C437.154 466.69 452.572 486.11 466.89 498.042" fill="none" opacity="1" stroke="#000000" stroke-linecap="round" stroke-linejoin="round" stroke-width="5.44621" vectornator:layerName="Curve 5"/>
</g>
</svg>
