<svg width="250mm" height="250mm" version="1.1" viewBox="0 0 250 250" xmlns="http://www.w3.org/2000/svg">
 <g stroke="#000">
  <rect className="Lines" x="25.867" y="25.867" width="198.27" height="198.27" fill-opacity="0" stroke-linejoin="bevel" stroke-width="1.75"/>
  <path className="Lines" transform="matrix(.19 0 0 .24828 69.907 47.306)" d="m292.83 611.5-260.01-146.8-2.8709-298.57 257.14-151.77 260.01 146.8 2.8709 298.57z" fill-opacity="0" stroke-linejoin="bevel" stroke-width="8.8157"/>
  <g fill="none">
   <g stroke-width="1.75">
    <path className="Lines" d="m25.867 25.867 98.587 25.002 99.678-25.002-50.276 61.45 49.843 74.13-98.154 37.682-99.719-36.448 49.772-74.13-49.73-62.685" stroke-linejoin="bevel"/>
    <path className="Lines" d="m76.143 162.68-50.276 61.45 99.678-25.002 98.587 25.002s-49.73-62.685-49.73-62.685l48.918-74.13-98.865-36.448-98.673 37.682 50.362 74.13" stroke-linejoin="bevel"/>
    <path className="Lines" d="m25.867 25.867 50.276 136.82 49.402 60.637 48.857-61.872 49.73-135.58"/>
   </g>
   <g stroke-linejoin="bevel" stroke-width="1.75">
    <path className="Lines" d="m224.13 224.13-50.276-136.82-49.402-61.491-48.857 62.726-49.73 135.58"/>
    <path className="Lines" d="m25.781 88.552 49.817-62.771 48.857 25.088 49.402-25.088 49.463 61.536"/>
    <path className="Lines" d="m75.598 25.781-49.772 136.9 99.719 60.637 98.154-61.872-49.843-135.67"/>
    <path className="Lines" d="m174.4 223.98 48.918-136.66-98.865-61.491-98.673 62.726 50.362 135.96"/>
   </g>
   <path className="Lines" d="m76.143 223.52 49.402-24.393 48.857 23.877" stroke-linejoin="round" stroke-miterlimit="0" stroke-width="1.7156" style="paint-order:normal"/>
   <path className="Lines" d="m25.826 162.68 50.317 60.841" stroke-width="1.75"/>
   <path className="Lines" d="m223.7 161.45-49.297 62.528" stroke-width="1.75"/>
  </g>
 </g>
</svg>
